<?xml version="1.0" encoding="utf-8"?>
<!-- Generator: Adobe Illustrator 19.0.0, SVG Export Plug-In . SVG Version: 6.00 Build 0)  -->
<svg version="1.1" id="Layer_1" xmlns="http://www.w3.org/2000/svg" xmlns:xlink="http://www.w3.org/1999/xlink" x="0px" y="0px"
	 viewBox="-331.4 -97.9 1458.8 1037.6" style="enable-background:new -331.4 -97.9 1458.8 1037.6;" xml:space="preserve">
<style type="text/css">
	.st0{fill:#F3F6F5;enable-background:new    ;}
	.st1{fill:url(#SVGID_1_);enable-background:new    ;}
	.st2{fill:url(#SVGID_2_);enable-background:new    ;}
	.st3{fill:url(#SVGID_3_);enable-background:new    ;}
	.st4{fill:url(#SVGID_4_);enable-background:new    ;}
	.st5{fill:url(#SVGID_5_);enable-background:new    ;}
	.st6{fill:url(#SVGID_6_);enable-background:new    ;}
	.st7{fill:url(#SVGID_7_);enable-background:new    ;}
	.st8{fill:url(#SVGID_8_);enable-background:new    ;}
	.st9{fill:url(#SVGID_9_);enable-background:new    ;}
	.st10{fill:url(#SVGID_10_);enable-background:new    ;}
	.st11{fill:url(#SVGID_11_);enable-background:new    ;}
	.st12{fill:url(#SVGID_12_);enable-background:new    ;}
	.st13{fill:url(#SVGID_13_);enable-background:new    ;}
	.st14{fill:url(#SVGID_14_);enable-background:new    ;}
	.st15{fill:url(#SVGID_15_);enable-background:new    ;}
	.st16{fill:url(#SVGID_16_);enable-background:new    ;}
	.st17{fill:url(#SVGID_17_);enable-background:new    ;}
	.st18{fill:url(#SVGID_18_);enable-background:new    ;}
	.st19{fill:url(#SVGID_19_);enable-background:new    ;}
	.st20{fill:url(#SVGID_20_);enable-background:new    ;}
	.st21{fill:url(#SVGID_21_);enable-background:new    ;}
	.st22{fill:url(#SVGID_22_);enable-background:new    ;}
	.st23{fill:url(#SVGID_23_);enable-background:new    ;}
	.st24{fill:url(#SVGID_24_);enable-background:new    ;}
	.st25{fill:url(#SVGID_25_);enable-background:new    ;}
	.st26{fill:url(#SVGID_26_);enable-background:new    ;}
	.st27{fill:url(#SVGID_27_);enable-background:new    ;}
	.st28{fill:url(#SVGID_28_);enable-background:new    ;}
	.st29{fill:url(#SVGID_29_);enable-background:new    ;}
	.st30{fill:url(#SVGID_30_);enable-background:new    ;}
	.st31{fill:url(#SVGID_31_);enable-background:new    ;}
	.st32{fill:url(#SVGID_32_);enable-background:new    ;}
	.st33{fill:url(#SVGID_33_);enable-background:new    ;}
	.st34{fill:url(#SVGID_34_);enable-background:new    ;}
	.st35{enable-background:new    ;}
	.st36{fill:url(#SVGID_35_);enable-background:new    ;}
	.st37{fill:url(#SVGID_36_);enable-background:new    ;}
	.st38{fill:url(#SVGID_37_);enable-background:new    ;}
	.st39{fill:url(#SVGID_38_);enable-background:new    ;}
</style>
<g>
	<polygon class="st0" points="398.5,889.7 1077.4,217.4 1077.4,201.5 749.6,-47.9 48.1,-47.9 -281.4,200.8 -281.4,215.5 	"/>
	
		<linearGradient id="SVGID_1_" gradientUnits="userSpaceOnUse" x1="3275.2983" y1="-5.2058" x2="3558.4856" y2="-5.2058" gradientTransform="matrix(-1 0 0 1 3676 0)">
		<stop  offset="0" style="stop-color:#819E8E"/>
		<stop  offset="0.9946" style="stop-color:#8FA89A"/>
	</linearGradient>
	<polygon class="st1" points="400.7,-47.9 212.9,37.5 117.5,-39.6 139.5,-47.9 	"/>
	<linearGradient id="SVGID_2_" gradientUnits="userSpaceOnUse" x1="398.9309" y1="-5.2058" x2="680.25" y2="-5.2058">
		<stop  offset="0" style="stop-color:#819E8E"/>
		<stop  offset="0.9946" style="stop-color:#8FA89A"/>
	</linearGradient>
	<polygon class="st2" points="398.9,-47.9 586.7,37.5 680.3,-40.2 660.1,-47.9 	"/>
	<g>
		<linearGradient id="SVGID_3_" gradientUnits="userSpaceOnUse" x1="365.415" y1="453.3525" x2="365.415" y2="841.1058">
			<stop  offset="0.3548" style="stop-color:#A5B9AE"/>
			<stop  offset="0.8279" style="stop-color:#CBD8D0"/>
			<stop  offset="0.9946" style="stop-color:#DAE5DF"/>
		</linearGradient>
		<polygon class="st3" points="332.3,684 397.9,841.1 398.6,453.4 		"/>
		<linearGradient id="SVGID_4_" gradientUnits="userSpaceOnUse" x1="432.0141" y1="453.3525" x2="432.0141" y2="841.1058">
			<stop  offset="0.1505" style="stop-color:#C9D5CE"/>
			<stop  offset="0.9946" style="stop-color:#DAE5DF"/>
		</linearGradient>
		<polygon class="st4" points="398.6,453.4 397.9,841.1 466.1,683.2 		"/>
	</g>
	<linearGradient id="SVGID_5_" gradientUnits="userSpaceOnUse" x1="501.7983" y1="208.6792" x2="501.7983" y2="499.4125">
		<stop  offset="5.376344e-003" style="stop-color:#A5B9AE"/>
		<stop  offset="0.9946" style="stop-color:#EBF5EF"/>
	</linearGradient>
	<polygon class="st5" points="492,499.4 584.1,240 419.5,208.7 	"/>
	<linearGradient id="SVGID_6_" gradientUnits="userSpaceOnUse" x1="694.695" y1="218.8058" x2="694.695" y2="630.0792">
		<stop  offset="0" style="stop-color:#C9D5CE"/>
		<stop  offset="0.9946" style="stop-color:#FFFDEA"/>
	</linearGradient>
	<polygon class="st6" points="521.1,630.1 868.3,218.8 700.4,218.8 	"/>
	<g>
		<linearGradient id="SVGID_7_" gradientUnits="userSpaceOnUse" x1="398.49" y1="550.8217" x2="902.945" y2="550.8217">
			<stop  offset="5.376344e-003" style="stop-color:#8FA89A"/>
			<stop  offset="0.9946" style="stop-color:#A5B9AE"/>
		</linearGradient>
		<polygon class="st7" points="902.9,216.7 895.1,211.9 484.2,685.6 398.5,889.7 608.4,681.9 635.1,634 		"/>
		<linearGradient id="SVGID_8_" gradientUnits="userSpaceOnUse" x1="656.965" y1="245.5925" x2="656.965" y2="823.3025">
			<stop  offset="5.376344e-003" style="stop-color:#8FA89A"/>
			<stop  offset="0.9946" style="stop-color:#C9D5CE"/>
		</linearGradient>
		<polygon class="st8" points="440.4,823.3 492.3,689 873.5,245.6 587.9,674.8 		"/>
	</g>
	<linearGradient id="SVGID_9_" gradientUnits="userSpaceOnUse" x1="838.51" y1="216.6825" x2="838.51" y2="586.6325">
		<stop  offset="5.376344e-003" style="stop-color:#A5B9AE"/>
		<stop  offset="0.9946" style="stop-color:#F2F4C9"/>
	</linearGradient>
	<polygon class="st9" points="902.9,216.7 1002.4,216.7 674.6,586.6 	"/>
	<linearGradient id="SVGID_10_" gradientUnits="userSpaceOnUse" x1="857.375" y1="129.2175" x2="1001.435" y2="129.2175">
		<stop  offset="5.376344e-003" style="stop-color:#FFFDEA"/>
		<stop  offset="0.9946" style="stop-color:#C9D5CE"/>
	</linearGradient>
	<polygon class="st10" points="901,202 1001.4,202 857.4,56.5 	"/>
	<linearGradient id="SVGID_11_" gradientUnits="userSpaceOnUse" x1="584.935" y1="121.3775" x2="887.755" y2="121.3775">
		<stop  offset="0" style="stop-color:#C9D5CE"/>
		<stop  offset="0.9946" style="stop-color:#EBF5EF"/>
	</linearGradient>
	<polygon class="st11" points="680,202.5 887.8,202.5 584.9,40.3 	"/>
	<g>
		<linearGradient id="SVGID_12_" gradientUnits="userSpaceOnUse" x1="52.4683" y1="150.9379" x2="52.4683" y2="-30.6755">
			<stop  offset="0" style="stop-color:#819E8E"/>
			<stop  offset="0.9946" style="stop-color:#C9D5CE"/>
		</linearGradient>
		<polygon class="st12" points="117.6,-39.3 210.7,39.1 -105.8,209 -48,32.6 		"/>
		<linearGradient id="SVGID_13_" gradientUnits="userSpaceOnUse" x1="-62.4109" y1="125.7767" x2="147.3091" y2="-2.6033">
			<stop  offset="5.376344e-003" style="stop-color:#EBF5EF"/>
			<stop  offset="0.9946" style="stop-color:#8FA89A"/>
		</linearGradient>
		<polygon class="st13" points="114.7,-24.6 192.4,36.5 -80.3,180.3 -36.9,43.4 		"/>
	</g>
	<g>
		
			<linearGradient id="SVGID_14_" gradientUnits="userSpaceOnUse" x1="51.4883" y1="150.9379" x2="51.4883" y2="-30.6755" gradientTransform="matrix(-1 0 0 1 796 0)">
			<stop  offset="0" style="stop-color:#819E8E"/>
			<stop  offset="0.9946" style="stop-color:#C9D5CE"/>
		</linearGradient>
		<polygon class="st14" points="679.3,-39.3 586.2,39.1 902.8,209 845,32.6 		"/>
		
			<linearGradient id="SVGID_15_" gradientUnits="userSpaceOnUse" x1="-63.3909" y1="125.7767" x2="146.3291" y2="-2.6033" gradientTransform="matrix(-1 0 0 1 796 0)">
			<stop  offset="5.376344e-003" style="stop-color:#EBF5EF"/>
			<stop  offset="0.9946" style="stop-color:#8FA89A"/>
		</linearGradient>
		<polygon class="st15" points="682.3,-24.6 604.5,36.5 877.3,180.3 833.9,43.4 		"/>
	</g>
	<linearGradient id="SVGID_16_" gradientUnits="userSpaceOnUse" x1="-205.7617" y1="125.2158" x2="-57.455" y2="125.2158">
		<stop  offset="5.376344e-003" style="stop-color:#FFFDEA"/>
		<stop  offset="0.9946" style="stop-color:#C9D5CE"/>
	</linearGradient>
	<polygon class="st16" points="-205.8,202.1 -110,202.1 -57.5,48.3 	"/>
	<linearGradient id="SVGID_17_" gradientUnits="userSpaceOnUse" x1="293.875" y1="212.2725" x2="293.875" y2="498.1058">
		<stop  offset="5.376344e-003" style="stop-color:#A5B9AE"/>
		<stop  offset="0.9946" style="stop-color:#EBF5EF"/>
	</linearGradient>
	<polygon class="st17" points="303.2,498.1 376.2,212.3 211.6,238.7 	"/>
	<g>
		<linearGradient id="SVGID_18_" gradientUnits="userSpaceOnUse" x1="113.555" y1="124.8075" x2="407.065" y2="124.8075">
			<stop  offset="0" style="stop-color:#819E8E"/>
			<stop  offset="0.9946" style="stop-color:#8FA89A"/>
		</linearGradient>
		<polygon class="st18" points="213.5,40.3 407.1,209.3 113.6,209.3 		"/>
		<linearGradient id="SVGID_19_" gradientUnits="userSpaceOnUse" x1="161.4324" y1="229.7706" x2="319.2209" y2="119.2859">
			<stop  offset="5.376344e-003" style="stop-color:#C9D5CE"/>
			<stop  offset="1" style="stop-color:#8FA89A"/>
		</linearGradient>
		<polygon class="st19" points="142,202 378.2,203.5 213,68.2 		"/>
	</g>
	<g>
		
			<linearGradient id="SVGID_20_" gradientUnits="userSpaceOnUse" x1="-29.8283" y1="124.8075" x2="263.6816" y2="124.8075" gradientTransform="matrix(-1 0 0 1 654.25 0)">
			<stop  offset="0" style="stop-color:#819E8E"/>
			<stop  offset="0.9946" style="stop-color:#8FA89A"/>
		</linearGradient>
		<polygon class="st20" points="584.1,40.3 390.6,209.3 684.1,209.3 		"/>
		
			<linearGradient id="SVGID_21_" gradientUnits="userSpaceOnUse" x1="18.0491" y1="229.7706" x2="175.8376" y2="119.2859" gradientTransform="matrix(-1 0 0 1 654.25 0)">
			<stop  offset="5.376344e-003" style="stop-color:#C9D5CE"/>
			<stop  offset="1" style="stop-color:#8FA89A"/>
		</linearGradient>
		<polygon class="st21" points="655.7,202 419.5,203.5 584.6,68.2 		"/>
	</g>
	<linearGradient id="SVGID_22_" gradientUnits="userSpaceOnUse" x1="109.39" y1="220.6025" x2="109.39" y2="642.9825">
		<stop  offset="0" style="stop-color:#C9D5CE"/>
		<stop  offset="0.9946" style="stop-color:#FFFDEA"/>
	</linearGradient>
	<polygon class="st22" points="-69.7,221.6 97.4,220.6 288.5,643 	"/>
	<linearGradient id="SVGID_23_" gradientUnits="userSpaceOnUse" x1="-203.475" y1="403.6175" x2="120.905" y2="403.6175">
		<stop  offset="5.376344e-003" style="stop-color:#A5B9AE"/>
		<stop  offset="0.9946" style="stop-color:#F2F4C9"/>
	</linearGradient>
	<polygon class="st23" points="-203.5,220.1 -103,220.1 120.9,587.1 	"/>
	<g>
		<linearGradient id="SVGID_24_" gradientUnits="userSpaceOnUse" x1="-107.435" y1="551.72" x2="398.49" y2="551.72">
			<stop  offset="5.376344e-003" style="stop-color:#A5B9AE"/>
			<stop  offset="0.9946" style="stop-color:#8FA89A"/>
		</linearGradient>
		<polygon class="st24" points="-94.2,213.7 -107.4,213.7 165.5,636.1 200.8,693.6 398.5,889.7 317.4,691.5 		"/>
		<linearGradient id="SVGID_25_" gradientUnits="userSpaceOnUse" x1="-44.225" y1="559.6825" x2="359.045" y2="559.6825">
			<stop  offset="5.376344e-003" style="stop-color:#8FA89A"/>
			<stop  offset="0.9946" style="stop-color:#A5B9AE"/>
		</linearGradient>
		<polygon class="st25" points="359,825.3 304.7,689.5 -44.2,294.1 211.6,678.3 		"/>
	</g>
	<linearGradient id="SVGID_26_" gradientUnits="userSpaceOnUse" x1="-281.385" y1="453.9398" x2="200.8011" y2="453.9398">
		<stop  offset="5.376344e-003" style="stop-color:#8FA89A"/>
		<stop  offset="0.9946" style="stop-color:#DAE5DF"/>
	</linearGradient>
	<polygon class="st26" points="-281.4,215.5 200.8,693.6 165.5,636.1 -231.4,214.2 	"/>
	<linearGradient id="SVGID_27_" gradientUnits="userSpaceOnUse" x1="842.8706" y1="216.5191" x2="842.8706" y2="681.8762">
		<stop  offset="5.376344e-003" style="stop-color:#8FA89A"/>
		<stop  offset="0.9946" style="stop-color:#DAE5DF"/>
	</linearGradient>
	<polygon class="st27" points="1023.8,221.7 642.9,624.2 639.6,627 635.1,634 608.4,681.9 1077.4,217.4 1029,216.5 	"/>
	<linearGradient id="SVGID_28_" gradientUnits="userSpaceOnUse" x1="240.465" y1="74.5825" x2="399.8783" y2="74.5825">
		<stop  offset="5.376344e-003" style="stop-color:#C9D5CE"/>
		<stop  offset="0.9946" style="stop-color:#EBF5EF"/>
	</linearGradient>
	<polygon class="st28" points="240.5,42.1 399.9,179.3 399.9,-30.1 	"/>
	<linearGradient id="SVGID_29_" gradientUnits="userSpaceOnUse" x1="399.8783" y1="74.5825" x2="557.005" y2="74.5825">
		<stop  offset="0" style="stop-color:#EBF5EF"/>
		<stop  offset="0.9946" style="stop-color:#C9D5CE"/>
	</linearGradient>
	<polygon class="st29" points="399.9,-30.1 399.9,179.3 557,41.1 	"/>
	<linearGradient id="SVGID_30_" gradientUnits="userSpaceOnUse" x1="-62.6817" y1="136.8125" x2="180.3583" y2="136.8125">
		<stop  offset="0" style="stop-color:#C9D5CE"/>
		<stop  offset="0.9946" style="stop-color:#EBF5EF"/>
	</linearGradient>
	<polygon class="st30" points="-62.7,202.5 103.3,202.5 180.4,71.2 	"/>
	<linearGradient id="SVGID_31_" gradientUnits="userSpaceOnUse" x1="138.8717" y1="-3.9808" x2="392.8333" y2="-3.9808">
		<stop  offset="5.376344e-003" style="stop-color:#EBF5EF"/>
		<stop  offset="0.9892" style="stop-color:#A5B9AE"/>
	</linearGradient>
	<polygon class="st31" points="138.9,-35.7 211.7,36.2 392.8,-44.2 	"/>
	<linearGradient id="SVGID_32_" gradientUnits="userSpaceOnUse" x1="422.3333" y1="0.5925" x2="659.5783" y2="0.5925">
		<stop  offset="1.075269e-002" style="stop-color:#A5B9AE"/>
		<stop  offset="0.9946" style="stop-color:#EBF5EF"/>
	</linearGradient>
	<polygon class="st32" points="584.4,38.2 659.6,-37 422.3,-37 	"/>
	<linearGradient id="SVGID_33_" gradientUnits="userSpaceOnUse" x1="398.49" y1="206.8825" x2="398.49" y2="682.6725">
		<stop  offset="5.376344e-003" style="stop-color:#8FA89A"/>
		<stop  offset="0.9946" style="stop-color:#819E8E"/>
	</linearGradient>
	<polygon class="st33" points="115,213.4 313.5,680.7 397.3,402.4 399.7,402.4 482.5,682.7 682,213.4 615.2,213.4 492.3,538.6 
		398.7,206.9 305.1,539.1 182.2,213.4 	"/>
	<linearGradient id="SVGID_34_" gradientUnits="userSpaceOnUse" x1="841.9735" y1="111.9376" x2="1077.385" y2="111.9376">
		<stop  offset="5.376344e-003" style="stop-color:#EBF5EF"/>
		<stop  offset="0.9946" style="stop-color:#8FA89A"/>
	</linearGradient>
	<polygon class="st34" points="1077.4,201.5 842,22.4 844.8,28 1023.2,201.5 	"/>
	<g class="st35">
		<g>
			<linearGradient id="SVGID_35_" gradientUnits="userSpaceOnUse" x1="674" y1="-9.9425" x2="844.7982" y2="-9.9425">
				<stop  offset="5.376344e-003" style="stop-color:#8FA89A"/>
				<stop  offset="0.9946" style="stop-color:#EBF5EF"/>
			</linearGradient>
			<polygon class="st36" points="842,22.4 749.6,-47.9 674,-47.9 844.8,28 			"/>
		</g>
	</g>
	
		<linearGradient id="SVGID_36_" gradientUnits="userSpaceOnUse" x1="3722.0625" y1="112.3329" x2="3957.385" y2="112.3329" gradientTransform="matrix(-1 0 0 1 3676 0)">
		<stop  offset="5.376344e-003" style="stop-color:#EBF5EF"/>
		<stop  offset="0.9946" style="stop-color:#8FA89A"/>
	</linearGradient>
	<polygon class="st37" points="-281.4,200.8 -46.1,23.2 -49.2,28 -227.5,201.5 	"/>
	<g class="st35">
		
			<linearGradient id="SVGID_37_" gradientUnits="userSpaceOnUse" x1="3554.5" y1="-9.9425" x2="3725.1658" y2="-9.9425" gradientTransform="matrix(-1 0 0 1 3676 0)">
			<stop  offset="5.376344e-003" style="stop-color:#8FA89A"/>
			<stop  offset="0.9946" style="stop-color:#EBF5EF"/>
		</linearGradient>
		<polygon class="st38" points="-46.1,23.2 48.3,-47.9 121.5,-47.9 -49.2,28 		"/>
	</g>
	<linearGradient id="SVGID_38_" gradientUnits="userSpaceOnUse" x1="398" y1="219.8631" x2="398" y2="200.6963">
		<stop  offset="5.376344e-003" style="stop-color:#8FA89A"/>
		<stop  offset="0.9946" style="stop-color:#819E8E"/>
	</linearGradient>
	<polygon class="st39" points="-281.4,200.7 -281.4,215.5 -276.9,219.9 1077.4,217.4 1077.4,201.4 	"/>
</g>
</svg>
